<?xml version="1.0" encoding="utf-8"?>
<!-- Generator: Adobe Illustrator 22.1.0, SVG Export Plug-In . SVG Version: 6.00 Build 0)  -->
<svg version="1.1" id="Layer_1" xmlns="http://www.w3.org/2000/svg" xmlns:xlink="http://www.w3.org/1999/xlink" x="0px" y="0px"
	 viewBox="0 0 500 500" style="enable-background:new 0 0 500 500;" xml:space="preserve">
<style type="text/css">
	.st0{fill:#FFEA9F;}
</style>
<g>
	<title>10</title>
	<g id="Layer_2_9_">
		<g id="Layer_1-2_8_">
			<path class="st0" d="M303.3,396.7c-8.8,0.3-15.3-2.7-21.4-6.3c-7.4-4.3-7-12-7.4-19.6l-6.1,11.2l-2.1-0.6
				c1.2-5.4,2.3-10.9,3.7-17.1l-10,6.1c-3.9,2.4-7.4,2-10.2-1.8c-4.8-6.2-10.1-8.8-17.7-4.2c-4.5,2.7-8.8,0.2-11.9-3.3
				c-4.2-4.9-8.5-5.6-14.1-2.3c-11.4,6.6-22.5,6.1-33.2-2.1c-4-3-8.3-5.6-12.8-7.8c-7.8-4-15.9-4.6-24-0.6c-6.6,3.2-14.2,3.6-21.1,1
				c-11.1-3.9-20.4-10.8-30.2-19.3c31.5-1.5,61.3-5.4,90.4-16c-3.6-3.2-6.4-6.2-9.6-8.6c-1.6-1-3.6-1.5-5.5-1.2
				c-10.9,1.3-21.7,2.6-32.5,4.3c-3.5,0.6-6.6,3-10,3.8c-3.7,0.9-7.7,1.6-11.3,0.9c-4.7-0.8-7.3,0.1-10.2,4.1
				c-2.9,4.1-6.7,7.3-11.2,9.5c-17.6,7.7-35.6,14.3-53.2,22.1c-7.3,3.2-13.4,3-19.9-2.6L36.9,336l-0.3-1.1L9.6,343l-4.1-6.4
				l11.8-4.8l-0.2-0.7c-3.2,0.5-6.4,1.3-9.7,1.5c-1.1,0.1-2.3-0.9-3.5-1.5c0.9-0.9,1.7-2.3,2.8-2.5c7.1-1.7,14.4-3.2,21.4-5.8
				l-26.1,3.6l-0.5-1.7l10.7-3.6H1v-10.6l18-1.7l0.1-1.1l-18.5-1.5l-0.1-2.3c9.5-2.2,19.5-1.4,29.1-3.8h-28c5-9.2,12.9-3,18.6-6
				l-11.8-1.5l-0.5-1.3c2.1-0.9,4.2-2.5,6.4-2.6c15.8-0.1,31.6-0.2,47.4,0.6c11,0.6,22.2,1.8,31.9,8.3c1.4,1,5,0.2,6.7-0.9
				c7.2-4.8,11.8-5.1,19-0.9c1.7,0.9,3.6,1.4,5.5,1.2c10.6-1.2,21.2-2.7,31.4-4.1c-1.2-7-2.1-13.4-3.5-19.7
				c-1.5-7.3-3.7-8.6-10.4-5.5c-9.6,4.4-19.5,5.3-29.9,3.6c-10.4-1.7-14.4-7.7-11.8-17.8c0.2-1.1,0.5-2.2,0.8-3.2
				c5.1-11,4.8-20.9-5.5-29.3c6,2.6,12,5.2,18.1,7.7c41.1,17,79.5,8.6,116.3-12.9c18.8-11,34.2-25.9,47.7-43.1
				c-19.2,14-35.2,32.7-59,39.9l11.2-7.6c-8.2,1.8-16.1,3.9-24.2,1c-7-2.5-9-6.8-5.4-11.7c2.7,5.8,11,5.9,21.3,0.6
				c-7.7-1.8-16-4-24.3-5.8c-3.2-0.7-6.5-0.8-9.8-0.5c-1.1,0.1-2.1,2.1-3.1,3.2c1.2,0.9,2.4,1.8,3.9,2.9c-1.8,3-4.6,2.4-6.9,0.1
				c-2.6-2.6-2.1-6,0.8-7.7c3-1.8,6.4-2.8,9.9-3c6.8,0,13.7,1.2,20.5,1.3c6.2,0.1,12.4-0.5,18.5-1.6c-8.5,0-17.2,0.7-25.6-0.2
				c-8.5-0.9-16.4-3.5-22.4-8.6l30.1,5.4l0.4-1.9c-2.5-0.3-5.1-0.6-7.6-1c-2.9-0.3-5.9-0.8-8.7-1.5c-2.6-0.9-5.1-1.9-7.6-3H216v-0.5
				c-4.3-0.9-8.8-1.3-12.8-2.7c-4.1-1.5-7.5-4.1-11.3-6.2c0.2-0.5,0.4-1,0.6-1.5l4.3,0.5l-7.8-8.7l20.1,8.6l0.3-0.9
				c-3.1-2.9-6.6-5.4-9.1-8.7c-3.2-4.4-1.1-10.1,4-10.8c1.8-0.3,4.4,1.3,5.8,2.8c0.6,0.6-0.9,3.3-2.6,4.4c-0.3-1.5-0.5-3-0.8-4.5
				c-1.3,0.3-3.8,0.4-3.8,0.8c-0.1,1.7-0.1,4.4,0.8,4.9c5.7,3.2,11.7,5.9,17.7,8.7l0.8-1.3l-2.9-3.7l20.3,3.9l0.2-1.2l-10.6-6.4
				l0.4-0.6L245,153c-5.6-1.8-11.6-2.9-13.6-9.5c-0.7-2.3,0.2-5.2,1.1-7.6c0.2-0.7,2.8-0.6,4.4-0.8l0.4,2.9h-4.1
				c1.5,7.2,13.2,7.8,24.9,0.9l-5.7-4c14.4,0.5,23.9-6.6,33.4-13.7c2.8-2.1,4.3-4.2,3.4-7.9c-1.5-5.9-2-12.1-3.8-17.9
				c-1.4-4.7-11.7-9.5-16.2-7.8c-1.4,0.5-2.4,2.6-3.4,4.1c-2.1,3.1-4.2,6.2-6.9,10.3c-1.3-14.2,5.2-24.2,16.7-27.7
				c3-0.8,6.1-1.5,9.2-2c5.9-1,10.2,0.6,14.4,5.6c5.2,6.2,12,11,18.2,16.4c1.8,1.6,4.4,2.5,5.8,4.3c8,10.2,18.2,8.2,28.3,5.2
				c5.8-1.7,11.2-4.4,16.8-6.7c-0.5,5.3-3.9,8.6-14.8,14c-6.2,3.1-12.6,5.9-19.3,9c2,6.4,4,12.7,6.2,19.6l-3.5,1.9
				c-0.1,0.5-0.2,1.1-0.2,1.6c0.4,10.6-0.8,11.7-10.8,11.8c-2.4,0-6.1,1.2-6.9,3c-1.1,2.4-1.3,6.8,0.1,8.7
				c11.4,15.2,23.2,30.3,35.2,45.1c11.8,14.4,29.5,20.1,44.6,29.5c5.3,3.3,11,6.2,16.8,9.4l-2.6,5.7c4,0.9,7.9,2.8,11.6,2.4
				c15.5-1.7,30.9-4,46.4-6.1c6.2-0.9,12.5-1.8,18.8-2.6c3.4-0.4,5.9,0.4,6.3,4.4c0.3,3.6-1,5.3-4.9,5.8c-19.5,2.4-39,5-58.5,7.8
				c-1.5,0.2-2.7,2.1-4.2,3.1c-1.6,1.1-3.4,3.2-5,3.1c-6.3-0.3-12.6-1.6-19-1.8c-4.4-0.2-8.8,0.9-13.2,1.1
				c-8.1,0.3-13.7,3-19.1,10.2c-13.7,18-29.2,34.7-43.7,52.1c-8.9,10.7-17.3,21.7-27,34l9.9,6.7l-1.6,2.4l-19.3-9
				C286.2,380,288.4,384.9,303.3,396.7z M370,251.6c-15.5-11.5-31.8-21.9-41.8-37.9c-3.7,2.8-6.4,6.5-9.6,7
				c-10.9,1.6-14.2,9.8-17.3,18.2c-2.5,6.7-2.2,13.6,3,19.3c4.8,5.3,11,3.6,16.7,2.4C337,257.1,352.6,250.3,370,251.6L370,251.6z
				 M276,220.5c-17.7,12.1-32.9,24.3-37.6,46.6C252.2,252.1,266,238.8,276,220.5L276,220.5z"/>
		</g>
	</g>
</g>
</svg>
